{
  "accessors": [
    {
      "bufferView": 2,
      "componentType": 5126,
      "count": 5895,
      "max": [
        1.7630585432052612,
        1.0538133382797241,
        0.73036730289459229
      ],
      "min": [
        -0.90550678968429565,
        -1.2759896516799927,
        -0.41144302487373352
      ],
      "type": "VEC3"
    },
    {
      "bufferView": 2,
      "byteOffset": 70740,
      "componentType": 5126,
      "count": 5895,
      "max": [
        0.99922114610671997,
        0.99934321641921997,
        0.99985218048095703
      ],
      "min": [
        -0.99950307607650757,
        -0.997722327709198,
        -0.9999997615814209
      ],
      "type": "VEC3"
    },
    {
      "bufferView": 3,
      "componentType": 5126,
      "count": 5895,
      "max": [
        0.98259502649307251,
        0.99991953372955322,
        0.9994848370552063,
        1
      ],
      "min": [
        -0.99995827674865723,
        -0.99998074769973755,
        -0.99987775087356567,
        1
      ],
      "type": "VEC4"
    },
    {
      "bufferView": 1,
      "componentType": 5126,
      "count": 5895,
      "max": [
        0.99804002046585083,
        0.94326001405715942
      ],
      "min": [
        0.0019499999471008778,
        0.0019499999471008778
      ],
      "type": "VEC2"
    },
    {
      "bufferView": 0,
      "componentType": 5125,
      "count": 26400,
      "max": [
        5894
      ],
      "min": [
        0
      ],
      "type": "SCALAR"
    }
  ],
  "asset": {
    "extras": {
      "author": "Radju (https://sketchfab.com/Radju)",
      "license": "SKETCHFAB Standard (https://sketchfab.com/licenses)",
      "source": "https://sketchfab.com/3d-models/rock-3-10-f4297254062d4a4aa6165dfac5215ffd",
      "title": "Rock 3-10"
    },
    "generator": "Sketchfab-9.41.1",
    "version": "2.0"
  },
  "bufferViews": [
    {
      "buffer": 0,
      "byteLength": 105600,
      "byteOffset": 0,
      "name": "floatBufferViews",
      "target": 34963
    },
    {
      "buffer": 0,
      "byteLength": 47160,
      "byteOffset": 105600,
      "byteStride": 8,
      "name": "floatBufferViews",
      "target": 34962
    },
    {
      "buffer": 0,
      "byteLength": 141480,
      "byteOffset": 152760,
      "byteStride": 12,
      "name": "floatBufferViews",
      "target": 34962
    },
    {
      "buffer": 0,
      "byteLength": 94320,
      "byteOffset": 294240,
      "byteStride": 16,
      "name": "floatBufferViews",
      "target": 34962
    }
  ],
  "buffers": [
    {
      "byteLength": 388560,
      "uri": "scene.bin"
    }
  ],
  "extensionsRequired": [
    "KHR_materials_pbrSpecularGlossiness"
  ],
  "extensionsUsed": [
    "KHR_materials_pbrSpecularGlossiness"
  ],
  "images": [
    {
      "uri": "textures/defaultMat_diffuse.png"
    },
    {
      "uri": "textures/defaultMat_specularGlossiness.png"
    },
    {
      "uri": "textures/defaultMat_normal.png"
    },
    {
      "uri": "textures/defaultMat_occlusion.png"
    }
  ],
  "materials": [
    {
      "doubleSided": true,
      "emissiveFactor": [
        0,
        0,
        0
      ],
      "extensions": {
        "KHR_materials_pbrSpecularGlossiness": {
          "diffuseFactor": [
            1,
            1,
            1,
            1
          ],
          "diffuseTexture": {
            "index": 0,
            "texCoord": 0
          },
          "glossinessFactor": 1,
          "specularFactor": [
            0.17135946823581377,
            0.17135946823581377,
            0.17135946823581377
          ],
          "specularGlossinessTexture": {
            "index": 1,
            "texCoord": 0
          }
        }
      },
      "name": "defaultMat",
      "normalTexture": {
        "index": 2,
        "scale": 1,
        "texCoord": 0
      },
      "occlusionTexture": {
        "index": 3,
        "strength": 1,
        "texCoord": 0
      }
    }
  ],
  "meshes": [
    {
      "primitives": [
        {
          "attributes": {
            "NORMAL": 1,
            "POSITION": 0,
            "TANGENT": 2,
            "TEXCOORD_0": 3
          },
          "indices": 4,
          "material": 0,
          "mode": 4
        }
      ]
    }
  ],
  "nodes": [
    {
      "children": [
        1
      ],
      "name": "RootNode (gltf orientation matrix)",
      "rotation": [
        -0.70710678118654746,
        -0,
        -0,
        0.70710678118654757
      ]
    },
    {
      "children": [
        2
      ],
      "matrix": [
        0.71889358758926392,
        -0.69512009620666504,
        0,
        0,
        0.69512009620666504,
        0.71889358758926392,
        0,
        0,
        0,
        0,
        1,
        0,
        0.19775143265724182,
        0.26682239770889282,
        0,
        1
      ],
      "name": "RootNode (model correction matrix)"
    },
    {
      "children": [
        3
      ],
      "name": "Rock10.OBJ.cleaner.materialmerger.gles"
    },
    {
      "mesh": 0,
      "name": ""
    }
  ],
  "samplers": [
    {
      "magFilter": 9729,
      "minFilter": 9987,
      "wrapS": 10497,
      "wrapT": 10497
    }
  ],
  "scene": 0,
  "scenes": [
    {
      "name": "OSG_Scene",
      "nodes": [
        0
      ]
    }
  ],
  "textures": [
    {
      "sampler": 0,
      "source": 0
    },
    {
      "sampler": 0,
      "source": 1
    },
    {
      "sampler": 0,
      "source": 2
    },
    {
      "sampler": 0,
      "source": 3
    }
  ]
}

