<?xml version="1.0" encoding="utf-8"?>
<!-- Generator: Adobe Illustrator 24.0.3, SVG Export Plug-In . SVG Version: 6.00 Build 0)  -->
<svg version="1.1" id="Calque_1" xmlns="http://www.w3.org/2000/svg" xmlns:xlink="http://www.w3.org/1999/xlink" x="0px" y="0px"
	 viewBox="0 0 112 112" style="enable-background:new 0 0 279.7 112.6;" xml:space="preserve">
<style type="text/css">
	.st0{fill:#FFFFFF;}
	.st1{fill:#F15A24;}
	.st2{fill:#5DC8FF;}
	.st3{fill:#8CC63F;}
	.st4{fill:#F7931E;}
</style>
<g>

	<path class="st1" d="M92.6,48.5c-0.5-2.3-1.9-4.2-3.9-5.4c-2-1.2-4.3-1.6-6.6-1.1c-2.3,0.5-4.2,1.9-5.4,3.9c-1.2,2-1.6,4.3-1.1,6.6
		c0.5,2.3,1.9,4.2,3.9,5.4c1.2,0.7,2.5,1.2,3.9,1.3c-0.9,10.7-7.8,20-17.9,23.8c-14.4,5.4-30.5-1.8-36-16.2
		c-2.6-7-2.4-14.6,0.7-21.4c3.1-6.8,8.6-12,15.6-14.6c10.3-3.9,21.9-1.4,29.6,6.4c0.6,0.6,1.5,0.6,2.1,0c0.6-0.6,0.6-1.5,0-2.1
		c-8.6-8.6-21.5-11.4-32.8-7.1c-7.7,2.9-13.8,8.7-17.2,16.2c-3.4,7.5-3.7,15.9-0.7,23.7c4.7,12.4,16.5,20,29,20
		c3.6,0,7.3-0.6,10.9-2C77.8,81.5,85.5,71,86.3,58.9c2.1-0.6,4-1.9,5.1-3.8C92.7,53.2,93.1,50.8,92.6,48.5z M88.9,53.5
		c-0.8,1.3-2.1,2.2-3.6,2.5c-1.5,0.3-3,0.1-4.3-0.7c-1.3-0.8-2.2-2.1-2.5-3.6c-0.3-1.5-0.1-3,0.7-4.3c0.8-1.3,2.1-2.2,3.6-2.5
		c0,0,0,0,0,0c0.4-0.1,0.9-0.1,1.3-0.1c1.1,0,2.1,0.3,3,0.9c1.3,0.8,2.2,2.1,2.5,3.6C90,50.7,89.7,52.2,88.9,53.5z"/>
	<path class="st2" d="M39.8,11.3c-0.3-0.8-1.2-1.2-1.9-0.9C19.6,17.3,7,34.4,5.9,54l-4.4,0.1c-0.4,0-0.8,0.2-1.1,0.5
		C0.1,54.8,0,55.2,0,55.6l0.2,12.2c0,0.8,0.7,1.5,1.5,1.5c0,0,0,0,0,0l12.2-0.2c0.4,0,0.8-0.2,1.1-0.5c0.3-0.3,0.4-0.7,0.4-1.1
		l-0.2-12.2c0-0.8-0.7-1.5-1.5-1.5l-4.8,0.1C10,35.7,21.8,19.7,39,13.2C39.7,12.9,40.1,12,39.8,11.3z M12.4,66.1l-9.2,0.1L3,57
		l9.2-0.1L12.4,66.1z"/>
	<path class="st3" d="M101.9,39.3C95.6,22.6,80.8,10.6,63.2,7.8c0,0,0,0,0,0l-7.1-7.3C55.8,0.2,55.5,0,55.1,0
		c-0.4,0-0.8,0.1-1.1,0.4l-7.3,7.1c-0.6,0.6-0.6,1.5,0,2.1l7.1,7.3c0.3,0.3,0.7,0.4,1.1,0.5c0,0,0,0,0,0c0.4,0,0.8-0.2,1-0.4
		l6.5-6.3c0,0,0,0,0,0c16.7,2.5,30.7,13.9,36.7,29.6c7.3,19.3,1.3,40.8-15.1,53.4c-0.7,0.5-0.8,1.4-0.3,2.1c0.3,0.4,0.7,0.6,1.2,0.6
		c0.3,0,0.6-0.1,0.9-0.3C103.2,82.7,109.7,59.9,101.9,39.3z M54.9,13.8l-5-5.2l5.2-5l5,5.2L54.9,13.8z"/>
	<path class="st0" d="M51,45.2c6.5-2.4,13.7,0.8,16.1,7.3c2.4,6.5-0.8,13.7-7.3,16.1c-6.5,2.4-13.7-0.8-16.1-7.3
		C41.3,54.8,44.6,47.6,51,45.2z"/>
	<path class="st4" d="M77.1,101.9c-0.1-0.5-0.5-1-1-1.2l-13-4.8c-0.5-0.2-1.1-0.1-1.5,0.3c-0.4,0.3-0.6,0.9-0.5,1.4L62,103
		c-20,2.9-39.8-7.6-48.6-25.9c-0.4-0.7-1.3-1.1-2-0.7c-0.7,0.4-1.1,1.3-0.7,2c8.3,17.3,26,28.1,44.8,28.1c2.3,0,4.7-0.2,7-0.5
		l0.9,5.3c0.1,0.5,0.5,1,1,1.2c0.2,0.1,0.3,0.1,0.5,0.1c0.3,0,0.7-0.1,1-0.3l10.7-8.9C77,103,77.2,102.4,77.1,101.9z M66,108.2
		l-0.7-4.3l-0.7-4.3l8.2,3L66,108.2z"/>
</g>
</svg>
